# xmcd CD database file
#
# Track frame offsets:
#	150
#	20307
#	39755
#	59110
#	81162
#	100101
#	117837
#	137696
#	155535
#	174388
#
# Disc length: 2569 seconds
#
# Revision: 1
# Processed by: cddbd v1.5PL3 Copyright (c) Steve Scherf et al.
# Submitted via: CDex 1.50
#
DISCID=770a070a
DTITLE=Mars Lasar - Final Frontier
DYEAR=2003
DGENRE=New Age
TTITLE0=Ultimate Focus
TTITLE1=New Worlds
TTITLE2=Pride and Glory
TTITLE3=Go For The Gold
TTITLE4=Communion
TTITLE5=Against All Odds
TTITLE6=Global Force
TTITLE7=Destiny
TTITLE8=True Success
TTITLE9=Final Frontier
EXTD=YEAR: 2003
EXTT0=
EXTT1=
EXTT2=
EXTT3=
EXTT4=
EXTT5=
EXTT6=
EXTT7=
EXTT8=
EXTT9=
PLAYORDER=
